<?xml version="1.0" encoding="UTF-8" standalone="no"?>
<!-- Created with Inkscape (http://www.inkscape.org/) -->

<svg
   xmlns:dc="http://purl.org/dc/elements/1.1/"
   xmlns:cc="http://creativecommons.org/ns#"
   xmlns:rdf="http://www.w3.org/1999/02/22-rdf-syntax-ns#"
   xmlns:svg="http://www.w3.org/2000/svg"
   xmlns="http://www.w3.org/2000/svg"
   xmlns:sodipodi="http://sodipodi.sourceforge.net/DTD/sodipodi-0.dtd"
   xmlns:inkscape="http://www.inkscape.org/namespaces/inkscape"
   width="66.145836mm"
   height="66.145836mm"
   viewBox="0 0 66.145836 66.145836"
   version="1.1"
   id="svg8"
   inkscape:version="0.92.2 (5c3e80d, 2017-08-06)"
   sodipodi:docname="AppleMaps logo.svg">
  <title
     id="title907">iMessage  logo</title>
  <defs
     id="defs2" />
  <sodipodi:namedview
     id="base"
     pagecolor="#ffffff"
     bordercolor="#666666"
     borderopacity="1.0"
     inkscape:pageopacity="0.0"
     inkscape:pageshadow="2"
     inkscape:zoom="1"
     inkscape:cx="373.76673"
     inkscape:cy="180.47486"
     inkscape:document-units="px"
     inkscape:current-layer="layer1"
     showgrid="false"
     inkscape:snap-object-midpoints="false"
     showguides="true"
     inkscape:guide-bbox="true"
     inkscape:snap-intersection-paths="false"
     inkscape:window-width="1920"
     inkscape:window-height="1017"
     inkscape:window-x="1358"
     inkscape:window-y="-8"
     inkscape:window-maximized="1"
     fit-margin-top="0"
     fit-margin-left="0"
     fit-margin-right="0"
     fit-margin-bottom="0"
     inkscape:object-nodes="false" />
  <metadata
     id="metadata5">
    <rdf:RDF>
      <cc:Work
         rdf:about="">
        <dc:format>image/svg+xml</dc:format>
        <dc:type
           rdf:resource="http://purl.org/dc/dcmitype/StillImage" />
        <dc:title>iMessage  logo</dc:title>
        <dc:date>02/04/2018</dc:date>
        <dc:creator>
          <cc:Agent>
            <dc:title>Apple, Inc.</dc:title>
          </cc:Agent>
        </dc:creator>
        <dc:publisher>
          <cc:Agent>
            <dc:title>CMetalCore</dc:title>
          </cc:Agent>
        </dc:publisher>
        <dc:source>https://uselessdesires.deviantart.com/art/iOS-11-Maps-App-Icon-LARGE-PNG-698966986</dc:source>
      </cc:Work>
    </rdf:RDF>
  </metadata>
  <g
     inkscape:label="Capa 1"
     inkscape:groupmode="layer"
     id="layer1"
     transform="translate(-284.1986,-143.22636)">
    <g
       id="g7423">
      <path
         id="path1466"
         d="m 307.68034,185.9545 v 23.41769 h 28.09639 c 1.45253,0 2.85175,-0.21498 4.17337,-0.60771 z"
         style="opacity:1;fill:#e4e1da;fill-opacity:1;stroke:none;stroke-width:1.33634555;stroke-linecap:square;stroke-linejoin:miter;stroke-miterlimit:4;stroke-dasharray:none;stroke-dashoffset:0;stroke-opacity:1;paint-order:markers stroke fill"
         inkscape:connector-curvature="0" />
      <path
         id="path1468"
         d="m 284.19865,169.35655 v 25.44806 c 0,6.34532 4.01774,11.71556 9.65726,13.72267 v -32.34427 z"
         style="opacity:1;fill:#ffccd5;fill-opacity:1;stroke:none;stroke-width:1.33634555;stroke-linecap:square;stroke-linejoin:miter;stroke-miterlimit:4;stroke-dasharray:none;stroke-dashoffset:0;stroke-opacity:1;paint-order:markers stroke fill"
         inkscape:connector-curvature="0" />
      <path
         id="path1486"
         d="m 293.85591,144.07127 c -4.11042,1.4629 -7.35738,4.71331 -8.817,8.82478 l 8.817,6.23218 z"
         style="opacity:1;fill:#e4e1da;fill-opacity:1;stroke:none;stroke-width:1.33634555;stroke-linecap:square;stroke-linejoin:miter;stroke-miterlimit:4;stroke-dasharray:none;stroke-dashoffset:0;stroke-opacity:1;paint-order:markers stroke fill"
         inkscape:connector-curvature="0" />
      <path
         id="path1506"
         d="m 307.68034,143.22636 v 25.67388 l 42.13839,29.78578 c 0.33954,-1.23524 0.52554,-2.53533 0.52554,-3.88141 v -14.59653 c -7.94451,-0.01 -13.92968,-2.22965 -18.17816,-4.65346 -2.12897,-1.2146 -3.82454,-2.47963 -5.11904,-3.53519 -1.29452,-1.05556 -2.23355,-1.92599 -2.64686,-2.22828 -2.62635,-1.92088 -5.22688,-5.70092 -7.27498,-10.40247 -2.04811,-4.70154 -3.49437,-10.32095 -3.49437,-15.8812 0,-0.0945 0.004,-0.18722 0.005,-0.28112 z"
         style="opacity:1;fill:#9ddf7b;fill-opacity:1;stroke:none;stroke-width:1.33634555;stroke-linecap:square;stroke-linejoin:miter;stroke-miterlimit:4;stroke-dasharray:none;stroke-dashoffset:0;stroke-opacity:1;paint-order:markers stroke fill"
         inkscape:connector-curvature="0" />
      <path
         inkscape:connector-curvature="0"
         style="opacity:1;fill:#fcab1a;fill-opacity:1;stroke:none;stroke-width:0.54796439;stroke-linecap:square;stroke-linejoin:miter;stroke-miterlimit:4;stroke-dasharray:none;stroke-dashoffset:0;stroke-opacity:1;paint-order:markers stroke fill"
         d="m 285.41011,151.95864 c -0.77745,1.78537 -1.2113,3.75727 -1.2113,5.83531 v 12.76252 l 54.5009,38.52427 c 5.73862,-1.15998 10.23116,-5.67225 11.36515,-11.42049 z"
         id="path1294" />
      <path
         inkscape:connector-curvature="0"
         style="opacity:1;fill:#ffd634;fill-opacity:1;stroke:none;stroke-width:0.48035991;stroke-linecap:square;stroke-linejoin:miter;stroke-miterlimit:4;stroke-dasharray:none;stroke-dashoffset:0;stroke-opacity:1;paint-order:markers stroke fill"
         d="m 285.03907,152.89605 c -0.54282,1.52976 -0.84026,3.17745 -0.84026,4.8979 v 11.5626 l 55.75352,39.40948 c 4.79699,-1.42376 8.54226,-5.23957 9.86862,-10.07846 z"
         id="path1292" />
      <path
         inkscape:connector-curvature="0"
         style="opacity:0.125;fill:#000000;fill-opacity:1;stroke:none;stroke-width:0.61615384;stroke-linecap:square;stroke-linejoin:miter;stroke-miterlimit:4;stroke-dasharray:none;stroke-dashoffset:0;stroke-opacity:1;paint-order:markers stroke fill"
         d="m 298.76635,143.22636 c -2.13801,0 -4.16312,0.46013 -5.98876,1.28054 v 63.58475 c 1.82564,0.82041 3.85075,1.28054 5.98876,1.28054 h 9.99264 v -66.14583 z"
         id="path1288" />
      <path
         inkscape:connector-curvature="0"
         style="opacity:1;fill:#ffffff;fill-opacity:1;stroke:none;stroke-width:0.53300506;stroke-linecap:square;stroke-linejoin:miter;stroke-miterlimit:4;stroke-dasharray:none;stroke-dashoffset:0;stroke-opacity:1;paint-order:markers stroke fill"
         d="m 298.76635,143.22636 c -1.72505,0 -3.37708,0.29879 -4.91028,0.84439 v 64.45705 c 1.5332,0.5456 3.18523,0.84439 4.91028,0.84439 h 8.91416 v -66.14583 z"
         id="path1290" />
      <path
         inkscape:connector-curvature="0"
         style="color:#000000;font-style:normal;font-variant:normal;font-weight:normal;font-stretch:normal;font-size:medium;line-height:normal;font-family:sans-serif;font-variant-ligatures:normal;font-variant-position:normal;font-variant-caps:normal;font-variant-numeric:normal;font-variant-alternates:normal;font-feature-settings:normal;text-indent:0;text-align:start;text-decoration:none;text-decoration-line:none;text-decoration-style:solid;text-decoration-color:#000000;letter-spacing:normal;word-spacing:normal;text-transform:none;writing-mode:lr-tb;direction:ltr;text-orientation:mixed;dominant-baseline:auto;baseline-shift:baseline;text-anchor:start;white-space:normal;shape-padding:0;clip-rule:nonzero;display:inline;overflow:visible;visibility:visible;opacity:1;isolation:auto;mix-blend-mode:normal;color-interpolation:sRGB;color-interpolation-filters:linearRGB;solid-color:#000000;solid-opacity:1;vector-effect:none;fill:#90c36c;fill-opacity:1;fill-rule:nonzero;stroke:none;stroke-width:2.02899694;stroke-linecap:square;stroke-linejoin:miter;stroke-miterlimit:4;stroke-dasharray:none;stroke-dashoffset:0;stroke-opacity:1;paint-order:markers stroke fill;color-rendering:auto;image-rendering:auto;shape-rendering:auto;text-rendering:auto;enable-background:accumulate"
         d="m 313.63568,143.22636 c -10e-4,0.0939 -0.005,0.1866 -0.005,0.28112 0,5.56025 1.44624,11.17966 3.49435,15.8812 2.04811,4.70155 4.64865,8.48159 7.27498,10.40247 0.41331,0.30229 1.35236,1.17272 2.64687,2.22828 1.2945,1.05556 2.99009,2.32059 5.11905,3.53519 4.24849,2.42381 10.23363,4.64364 18.17815,4.65346 v -2.02933 c -7.56833,-0.01 -13.17124,-2.10299 -17.17253,-4.38578 -2.00533,-1.14406 -3.60644,-2.33724 -4.84362,-3.34605 -1.23717,-1.00882 -2.06488,-1.80905 -2.72851,-2.29443 -2.08888,-1.52778 -4.66471,-5.09743 -6.61508,-9.57461 -1.95037,-4.47719 -3.32433,-9.86442 -3.32433,-15.0704 0,-0.0946 0.003,-0.18731 0.005,-0.28112 z"
         id="path1300" />
      <path
         inkscape:connector-curvature="0"
         style="opacity:1;fill:#f4efeb;fill-opacity:1;stroke:none;stroke-width:2.32899642;stroke-linecap:square;stroke-linejoin:miter;stroke-miterlimit:4;stroke-dasharray:none;stroke-dashoffset:0;stroke-opacity:1;paint-order:markers stroke fill"
         d="m 314.65008,143.22636 c -10e-4,0.0936 -0.005,0.18628 -0.005,0.2806 0,10.76622 5.63917,22.01594 10.35438,25.4646 2.15141,1.57352 9.81442,10.20181 25.34462,10.2216 v -21.39921 c 0,-8.07058 -6.49698,-14.56759 -14.56753,-14.56759 z"
         id="path1302" />
      <path
         inkscape:connector-curvature="0"
         style="color:#000000;font-style:normal;font-variant:normal;font-weight:normal;font-stretch:normal;font-size:medium;line-height:normal;font-family:sans-serif;font-variant-ligatures:normal;font-variant-position:normal;font-variant-caps:normal;font-variant-numeric:normal;font-variant-alternates:normal;font-feature-settings:normal;text-indent:0;text-align:start;text-decoration:none;text-decoration-line:none;text-decoration-style:solid;text-decoration-color:#000000;letter-spacing:normal;word-spacing:normal;text-transform:none;writing-mode:lr-tb;direction:ltr;text-orientation:mixed;dominant-baseline:auto;baseline-shift:baseline;text-anchor:start;white-space:normal;shape-padding:0;clip-rule:nonzero;display:inline;overflow:visible;visibility:visible;opacity:1;isolation:auto;mix-blend-mode:normal;color-interpolation:sRGB;color-interpolation-filters:linearRGB;solid-color:#000000;solid-opacity:1;vector-effect:none;fill:#90c36c;fill-opacity:1;fill-rule:nonzero;stroke:none;stroke-width:2.32899642;stroke-linecap:square;stroke-linejoin:miter;stroke-miterlimit:4;stroke-dasharray:none;stroke-dashoffset:0;stroke-opacity:1;paint-order:markers stroke fill;color-rendering:auto;image-rendering:auto;shape-rendering:auto;text-rendering:auto;enable-background:accumulate"
         d="m 328.62697,143.22636 c 0.17761,6.88515 1.90274,11.65532 6.14069,15.63109 2.03107,1.90544 4.00314,3.55635 6.89671,4.67361 2.22774,0.86017 4.96366,1.39926 8.68006,1.60249 v -2.33216 c -3.47717,-0.20037 -5.93056,-0.70565 -7.84238,-1.44384 -2.5142,-0.97077 -4.16789,-2.34651 -6.14276,-4.19922 -3.80173,-3.56655 -5.25102,-7.44812 -5.40638,-13.93197 z"
         id="path1304" />
      <path
         inkscape:connector-curvature="0"
         style="opacity:1;fill:#9ddf7b;fill-opacity:1;stroke:none;stroke-width:2.32899642;stroke-linecap:square;stroke-linejoin:miter;stroke-miterlimit:4;stroke-dasharray:none;stroke-dashoffset:0;stroke-opacity:1;paint-order:markers stroke fill"
         d="m 329.78969,143.22636 c 0.16691,6.68485 1.75431,11.01018 5.77379,14.78101 3.53574,3.31702 6.48293,5.49459 14.78095,5.96036 v -6.17378 c 0,-8.07058 -6.49698,-14.56759 -14.56753,-14.56759 z"
         id="path1306" />
      <path
         inkscape:connector-curvature="0"
         style="opacity:1;fill:#3394e3;fill-opacity:1;stroke:none;stroke-width:0.53345191;stroke-linecap:square;stroke-linejoin:miter;stroke-miterlimit:4;stroke-dasharray:none;stroke-dashoffset:0;stroke-opacity:1;paint-order:markers stroke fill"
         d="m 298.76635,143.22636 c -0.68098,0 -1.34942,0.05 -2.00504,0.13953 v 28.30008 a 11.786549,11.786586 0 0 1 4.08811,-0.74053 11.786549,11.786586 0 0 1 3.92584,0.68834 v -28.38742 z"
         id="path1308" />
      <path
         inkscape:connector-curvature="0"
         id="path7363"
         transform="matrix(0.26458333,0,0,0.26458333,284.1986,143.22636)"
         d="m 188.18164,158.51953 c -0.71161,0.0227 -1.40808,0.23529 -2.00781,0.61914 -6.30554,4.02512 -13.56655,6.16118 -20.98047,6.17188 -5.39252,-0.004 -10.7339,-1.13672 -15.69336,-3.32227 -1.92529,-0.84786 -4.22297,-4.6e-4 -5.14453,1.89063 -3.22348,6.61617 -4.90874,13.87878 -4.93164,21.23828 v 0.0137 c 0.004,26.91942 21.90396,48.82422 48.82422,48.82422 26.92274,0 48.83203,-21.90726 48.83203,-48.83008 a 1.9771946,1.9771946 0 0 0 0,-0.008 c -0.0113,-7.37515 -1.69649,-14.65236 -4.92383,-21.28321 -0.92315,-1.89373 -3.23396,-2.7342 -5.16016,-1.88086 -4.9522,2.19689 -10.28166,3.33921 -15.67187,3.35743 -7.38206,-0.0302 -14.6123,-2.16211 -20.89063,-6.16993 -0.33448,-0.21392 -0.74433,-0.20585 -1.12304,-0.31054 a 1.9771946,1.9771946 0 0 0 -1.12891,-0.31055 z"
         style="color:#000000;font-style:normal;font-variant:normal;font-weight:normal;font-stretch:normal;font-size:medium;line-height:normal;font-family:sans-serif;font-variant-ligatures:normal;font-variant-position:normal;font-variant-caps:normal;font-variant-numeric:normal;font-variant-alternates:normal;font-feature-settings:normal;text-indent:0;text-align:start;text-decoration:none;text-decoration-line:none;text-decoration-style:solid;text-decoration-color:#000000;letter-spacing:normal;word-spacing:normal;text-transform:none;writing-mode:lr-tb;direction:ltr;text-orientation:mixed;dominant-baseline:auto;baseline-shift:baseline;text-anchor:start;white-space:normal;shape-padding:0;clip-rule:nonzero;display:inline;overflow:visible;visibility:visible;opacity:1;isolation:auto;mix-blend-mode:normal;color-interpolation:sRGB;color-interpolation-filters:linearRGB;solid-color:#000000;solid-opacity:1;vector-effect:none;fill:#0078d9;fill-opacity:1;fill-rule:nonzero;stroke:none;stroke-width:3.9539938;stroke-linecap:round;stroke-linejoin:round;stroke-miterlimit:4;stroke-dasharray:none;stroke-dashoffset:0;stroke-opacity:1;paint-order:markers stroke fill;color-rendering:auto;image-rendering:auto;shape-rendering:auto;text-rendering:auto;enable-background:accumulate" />
      <path
         inkscape:connector-curvature="0"
         id="path7370"
         transform="matrix(0.26458333,0,0,0.26458333,284.1986,143.22636)"
         d="m 188.24219,160.49609 a 1.9771915,1.9771977 0 0 0 -1.00196,0.31055 c -6.62139,4.22672 -14.25679,6.46873 -22.05078,6.47852 -5.66725,-0.004 -11.2755,-1.18892 -16.48437,-3.48438 a 1.9771915,1.9771977 0 0 0 -2.57422,0.94336 c -3.09298,6.34828 -4.71046,13.31337 -4.73242,20.375 a 1.9771915,1.9771977 0 0 0 0,0.008 c 0,25.85224 20.9994,46.85157 46.85156,46.85157 25.85216,0 46.85156,-20.99933 46.85156,-46.85157 a 1.9771915,1.9771977 0 0 0 0,-0.004 c -0.0113,-7.07615 -1.62781,-14.05732 -4.72461,-20.41993 a 1.9771915,1.9771977 0 0 0 -2.57812,-0.9414 c -5.20596,2.30944 -10.81444,3.50834 -16.48438,3.52539 -7.75774,-0.0302 -15.35461,-2.2713 -21.94531,-6.47852 a 1.9771915,1.9771977 0 0 0 -1.12695,-0.31054 z"
         style="color:#000000;font-style:normal;font-variant:normal;font-weight:normal;font-stretch:normal;font-size:medium;line-height:normal;font-family:sans-serif;font-variant-ligatures:normal;font-variant-position:normal;font-variant-caps:normal;font-variant-numeric:normal;font-variant-alternates:normal;font-feature-settings:normal;text-indent:0;text-align:start;text-decoration:none;text-decoration-line:none;text-decoration-style:solid;text-decoration-color:#000000;letter-spacing:normal;word-spacing:normal;text-transform:none;writing-mode:lr-tb;direction:ltr;text-orientation:mixed;dominant-baseline:auto;baseline-shift:baseline;text-anchor:start;white-space:normal;shape-padding:0;clip-rule:nonzero;display:inline;overflow:visible;visibility:visible;opacity:1;isolation:auto;mix-blend-mode:normal;color-interpolation:sRGB;color-interpolation-filters:linearRGB;solid-color:#000000;solid-opacity:1;vector-effect:none;fill:#ffffff;fill-opacity:1;fill-rule:nonzero;stroke:none;stroke-width:3.9539938;stroke-linecap:round;stroke-linejoin:round;stroke-miterlimit:4;stroke-dasharray:none;stroke-dashoffset:0;stroke-opacity:1;paint-order:markers stroke fill;color-rendering:auto;image-rendering:auto;shape-rendering:auto;text-rendering:auto;enable-background:accumulate" />
      <path
         inkscape:connector-curvature="0"
         style="opacity:1;fill:#de1c25;fill-opacity:1;stroke:none;stroke-width:1.39009523;stroke-linecap:square;stroke-linejoin:miter;stroke-miterlimit:4;stroke-dasharray:none;stroke-dashoffset:0;stroke-opacity:1;paint-order:markers stroke fill"
         d="m 334.02093,186.21392 a 11.590158,11.873178 0 0 1 -6.1164,1.79627 11.590158,11.873178 0 0 1 -4.57179,-0.96635 11.873141,11.873178 0 0 0 -1.03767,3.27784 h 23.41608 a 11.873141,11.873178 0 0 0 -1.02888,-3.28921 11.590158,11.873178 0 0 1 -4.57336,0.97772 11.590158,11.873178 0 0 1 -6.08798,-1.79627 z"
         id="path1312" />
      <path
         inkscape:connector-curvature="0"
         style="opacity:1;fill:#0078d9;fill-opacity:1;stroke:none;stroke-width:1.39009523;stroke-linecap:square;stroke-linejoin:miter;stroke-miterlimit:4;stroke-dasharray:none;stroke-dashoffset:0;stroke-opacity:1;paint-order:markers stroke fill"
         d="m 322.19844,191.1485 a 11.873141,11.873178 0 0 0 -0.0651,1.05885 11.873141,11.873178 0 0 0 11.87313,11.87318 11.873141,11.873178 0 0 0 11.87315,-11.87318 11.873141,11.873178 0 0 0 -0.0548,-1.05885 z"
         id="path1314" />
      <g
         id="flowRoot1324"
         style="font-style:normal;font-weight:normal;font-size:40px;line-height:1.25;font-family:sans-serif;letter-spacing:0px;word-spacing:0px;opacity:1;fill:#ffffff;fill-opacity:1;stroke:none"
         transform="matrix(0.25421626,0,0,0.22728026,283.49854,147.75783)"
         aria-label="280">
        <path
           inkscape:connector-curvature="0"
           id="path5687"
           style="font-style:normal;font-variant:normal;font-weight:bold;font-stretch:normal;font-family:Arial;-inkscape-font-specification:'Arial Bold';fill:#ffffff"
           d="m 185.23437,221.18252 v 5.09766 h -19.23828 q 0.3125,-2.89063 1.875,-5.46875 1.5625,-2.59766 6.17188,-6.875 3.71094,-3.45703 4.55078,-4.6875 1.13281,-1.69922 1.13281,-3.35938 0,-1.83594 -0.99609,-2.8125 -0.97656,-0.99609 -2.71485,-0.99609 -1.71875,0 -2.73437,1.03515 -1.01563,1.03516 -1.17188,3.4375 l -5.46875,-0.54687 q 0.48829,-4.53125 3.06641,-6.50391 2.57813,-1.97265 6.44531,-1.97265 4.23828,0 6.66016,2.28515 2.42187,2.28516 2.42187,5.6836 0,1.93359 -0.70312,3.6914 -0.68359,1.73828 -2.1875,3.65235 -0.99609,1.26953 -3.59375,3.65234 -2.59766,2.38281 -3.30078,3.16406 -0.6836,0.78125 -1.11328,1.52344 z" />
        <path
           inkscape:connector-curvature="0"
           id="path5689"
           style="font-style:normal;font-variant:normal;font-weight:bold;font-stretch:normal;font-family:Arial;-inkscape-font-specification:'Arial Bold';fill:#ffffff"
           d="m 193.67187,210.83096 q -2.1289,-0.89844 -3.10546,-2.46094 -0.95704,-1.58203 -0.95704,-3.45703 0,-3.20313 2.22657,-5.29297 2.24609,-2.08984 6.36718,-2.08984 4.08204,0 6.32813,2.08984 2.26562,2.08984 2.26562,5.29297 0,1.99219 -1.03515,3.55469 -1.03516,1.54297 -2.91016,2.36328 2.38281,0.95703 3.61328,2.79297 1.25,1.83593 1.25,4.23828 0,3.96484 -2.53906,6.44531 -2.51953,2.48047 -6.71875,2.48047 -3.90625,0 -6.50391,-2.05078 -3.0664,-2.42188 -3.0664,-6.64063 0,-2.32422 1.15234,-4.25781 1.15235,-1.95312 3.63281,-3.00781 z m 1.13282,-5.52735 q 0,1.64063 0.91797,2.5586 0.9375,0.91797 2.48046,0.91797 1.5625,0 2.5,-0.91797 0.9375,-0.9375 0.9375,-2.57813 0,-1.54297 -0.9375,-2.46093 -0.91796,-0.9375 -2.4414,-0.9375 -1.58203,0 -2.51953,0.9375 -0.9375,0.9375 -0.9375,2.48046 z m -0.50782,12.26563 q 0,2.26562 1.15235,3.53516 1.17187,1.26953 2.91015,1.26953 1.69922,0 2.8125,-1.21094 1.11329,-1.23047 1.11329,-3.53516 0,-2.01172 -1.13282,-3.22265 -1.13281,-1.23047 -2.87109,-1.23047 -2.01172,0 -3.00781,1.38672 -0.97657,1.38672 -0.97657,3.00781 z" />
        <path
           inkscape:connector-curvature="0"
           id="path5691"
           style="font-style:normal;font-variant:normal;font-weight:bold;font-stretch:normal;font-family:Arial;-inkscape-font-specification:'Arial Bold';fill:#ffffff"
           d="m 220.50781,197.53018 q 4.16016,0 6.50391,2.96875 2.79297,3.51562 2.79297,11.66015 0,8.125 -2.8125,11.67969 -2.32422,2.92969 -6.48438,2.92969 -4.17969,0 -6.73828,-3.20313 -2.55859,-3.22265 -2.55859,-11.46484 0,-8.08594 2.8125,-11.64063 2.32422,-2.92968 6.48437,-2.92968 z m 0,4.55078 q -0.99609,0 -1.77734,0.64453 -0.78125,0.625 -1.21094,2.26562 -0.56641,2.12891 -0.56641,7.16797 0,5.03907 0.50782,6.9336 0.50781,1.875 1.26953,2.5 0.78125,0.625 1.77734,0.625 0.9961,0 1.77735,-0.625 0.78125,-0.64453 1.21093,-2.28516 0.56641,-2.10937 0.56641,-7.14844 0,-5.03906 -0.50781,-6.91406 -0.50782,-1.89453 -1.28907,-2.51953 -0.76171,-0.64453 -1.75781,-0.64453 z" />
      </g>
      <ellipse
         ry="11.786586"
         rx="11.786549"
         style="opacity:1;fill:#0179da;fill-opacity:1;stroke:none;stroke-width:0.84398597;stroke-linecap:square;stroke-linejoin:miter;stroke-miterlimit:4;stroke-dasharray:none;stroke-dashoffset:0;stroke-opacity:1;paint-order:markers stroke fill"
         id="circle1296"
         cx="300.84967"
         cy="182.71205" />
      <path
         style="opacity:1;fill:#ffffff;fill-opacity:1;stroke:none;stroke-width:0.25229594;stroke-linecap:square;stroke-linejoin:miter;stroke-miterlimit:4;stroke-dasharray:none;stroke-dashoffset:0;stroke-opacity:1;paint-order:markers stroke fill"
         d="m 300.79849,175.39963 c -0.008,5.3e-4 -0.0161,0.003 -0.0243,0.004 -0.0212,0.002 -0.0419,0.006 -0.063,0.0103 -0.0303,0.006 -0.0602,0.0119 -0.0894,0.0212 -0.007,0.002 -0.0133,0.002 -0.0196,0.005 -0.0103,0.004 -0.0193,0.009 -0.0294,0.0134 -0.0302,0.0119 -0.0594,0.0252 -0.0879,0.0408 -0.0185,0.0101 -0.0359,0.0211 -0.0532,0.0326 -0.0212,0.014 -0.0414,0.0284 -0.061,0.0444 -0.0206,0.0168 -0.0398,0.0345 -0.0584,0.0532 -0.0153,0.0156 -0.0299,0.0316 -0.0439,0.0486 -0.0183,0.0219 -0.0346,0.0446 -0.0501,0.0682 -0.0109,0.0166 -0.0214,0.0331 -0.031,0.0506 -0.0153,0.0277 -0.0281,0.0564 -0.0398,0.0858 -0.004,0.0107 -0.0105,0.0199 -0.0145,0.031 l -1.07434,3.10886 c -0.003,0.004 -0.004,0.008 -0.006,0.0124 l -0.80355,2.32595 -0.54364,1.57252 v 5.2e-4 l -2.08307,6.0296 c -0.12451,0.27422 -0.0786,0.60627 0.14364,0.83716 0.12531,0.13016 0.28552,0.20269 0.45115,0.22376 0,9e-5 0.003,5.2e-4 0.003,5.2e-4 0.0441,0.005 0.088,0.007 0.13229,0.005 0.013,-5.3e-4 0.0254,-0.002 0.0382,-0.003 0.0318,-0.003 0.0632,-0.008 0.0946,-0.0155 0.0204,-0.005 0.0402,-0.0103 0.06,-0.0165 0.0241,-0.008 0.0475,-0.0161 0.0708,-0.0264 0.0262,-0.0112 0.0512,-0.0242 0.076,-0.0382 0.014,-0.008 0.0282,-0.0161 0.0419,-0.0253 0.0337,-0.0221 0.0647,-0.0475 0.0946,-0.0749 0.003,-0.003 0.007,-0.005 0.0109,-0.008 l 0.0429,-0.0408 v -0.002 l 3.9672,-3.81889 3.96717,3.81889 c 0.004,0.004 0.008,0.007 0.0114,0.0114 l 0.0325,0.031 c 0.003,0.003 0.007,0.005 0.0109,0.008 0.0299,0.0274 0.061,0.0528 0.0946,0.0749 0.0138,0.009 0.0277,0.0171 0.0419,0.0253 0.0246,0.0141 0.0498,0.027 0.076,0.0382 0.0233,0.0102 0.0468,0.0186 0.0708,0.0264 0.0198,0.006 0.0396,0.0119 0.0599,0.0165 0.031,0.007 0.062,0.0122 0.0935,0.0155 0.0132,10e-4 0.026,0.003 0.0393,0.003 0.0443,0.002 0.0883,8e-4 0.13229,-0.005 0,-1e-4 0.003,-5.2e-4 0.003,-5.2e-4 0.16563,-0.0211 0.32586,-0.0936 0.45114,-0.22376 0.22228,-0.23089 0.26818,-0.56294 0.14367,-0.83716 l -3.43079,-9.92859 c 0,-0.003 -0.003,-0.006 -0.004,-0.009 l -1.0754,-3.11196 c -0.004,-0.0123 -0.0115,-0.0227 -0.0165,-0.0346 -0.0109,-0.0272 -0.0228,-0.0538 -0.0367,-0.0796 -0.0103,-0.0188 -0.0214,-0.0366 -0.0331,-0.0543 -0.0154,-0.0231 -0.0313,-0.0453 -0.0491,-0.0667 -0.0148,-0.0178 -0.0303,-0.0344 -0.0465,-0.0506 -0.0172,-0.0174 -0.0352,-0.0339 -0.0543,-0.0496 -0.0209,-0.0172 -0.0426,-0.0327 -0.0651,-0.0475 -0.0169,-0.0111 -0.0337,-0.0217 -0.0517,-0.0315 -0.0281,-0.0155 -0.057,-0.0285 -0.0868,-0.0403 -0.0103,-0.004 -0.0193,-0.0103 -0.03,-0.0139 -0.007,-0.002 -0.013,-0.003 -0.0196,-0.005 -0.0291,-0.009 -0.0587,-0.0156 -0.0889,-0.0212 -0.0212,-0.004 -0.042,-0.008 -0.063,-0.0103 -0.0249,-0.002 -0.0501,-0.003 -0.0755,-0.003 -0.0169,-3e-5 -0.0343,-0.003 -0.0511,-0.002 z"
         id="path1298"
         inkscape:connector-curvature="0" />
      <path
         id="path1504"
         d="m 349.81873,198.68602 c -0.0177,0.0642 -0.0353,0.12844 -0.0538,0.19224 0.0185,-0.0637 0.0383,-0.12667 0.0558,-0.19069 z"
         style="opacity:0.23999999;fill:#000000;fill-opacity:1;stroke:none;stroke-width:1.33634555;stroke-linecap:square;stroke-linejoin:miter;stroke-miterlimit:4;stroke-dasharray:none;stroke-dashoffset:0;stroke-opacity:1;paint-order:markers stroke fill"
         inkscape:connector-curvature="0" />
      <path
         id="path1502"
         d="m 349.76497,198.87826 c -0.019,0.0659 -0.0374,0.13193 -0.0574,0.1974 0.0198,-0.0654 0.0383,-0.13156 0.0574,-0.1974 z"
         style="opacity:0.23999999;fill:#000000;fill-opacity:1;stroke:none;stroke-width:1.33634555;stroke-linecap:square;stroke-linejoin:miter;stroke-miterlimit:4;stroke-dasharray:none;stroke-dashoffset:0;stroke-opacity:1;paint-order:markers stroke fill"
         inkscape:connector-curvature="0" />
      <path
         id="path1500"
         d="m 349.70761,199.07566 c -0.0519,0.17023 -0.10549,0.33943 -0.16328,0.50695 0.0577,-0.16744 0.11155,-0.33674 0.16328,-0.50695 z"
         style="opacity:0.23999999;fill:#000000;fill-opacity:1;stroke:none;stroke-width:1.33634555;stroke-linecap:square;stroke-linejoin:miter;stroke-miterlimit:4;stroke-dasharray:none;stroke-dashoffset:0;stroke-opacity:1;paint-order:markers stroke fill"
         inkscape:connector-curvature="0" />
      <path
         id="path1496"
         d="m 298.06184,143.24445 c -0.0769,0.004 -0.15292,0.0102 -0.22944,0.015 0.0766,-0.005 0.15253,-0.0113 0.22944,-0.015 z"
         style="opacity:0.23999999;fill:#000000;fill-opacity:1;stroke:none;stroke-width:1.33634555;stroke-linecap:square;stroke-linejoin:miter;stroke-miterlimit:4;stroke-dasharray:none;stroke-dashoffset:0;stroke-opacity:1;paint-order:markers stroke fill"
         inkscape:connector-curvature="0" />
      <path
         id="path1494"
         d="m 297.38179,143.29302 c -0.10417,0.01 -0.20759,0.0217 -0.3111,0.0336 0.10343,-0.0119 0.20701,-0.0238 0.3111,-0.0336 z"
         style="opacity:0.23999999;fill:#000000;fill-opacity:1;stroke:none;stroke-width:1.33634555;stroke-linecap:square;stroke-linejoin:miter;stroke-miterlimit:4;stroke-dasharray:none;stroke-dashoffset:0;stroke-opacity:1;paint-order:markers stroke fill"
         inkscape:connector-curvature="0" />
      <path
         id="path1492"
         d="m 296.70689,143.37312 c -0.10895,0.0153 -0.21741,0.0314 -0.32557,0.0491 0.10811,-0.0177 0.21667,-0.0337 0.32557,-0.0491 z"
         style="opacity:0.23999999;fill:#000000;fill-opacity:1;stroke:none;stroke-width:1.33634555;stroke-linecap:square;stroke-linejoin:miter;stroke-miterlimit:4;stroke-dasharray:none;stroke-dashoffset:0;stroke-opacity:1;paint-order:markers stroke fill"
         inkscape:connector-curvature="0" />
      <path
         id="path1490"
         d="m 296.04078,143.48268 c -0.11306,0.0212 -0.22588,0.0428 -0.33795,0.0667 0.11197,-0.0239 0.225,-0.0454 0.33795,-0.0667 z"
         style="opacity:0.23999999;fill:#000000;fill-opacity:1;stroke:none;stroke-width:1.33634555;stroke-linecap:square;stroke-linejoin:miter;stroke-miterlimit:4;stroke-dasharray:none;stroke-dashoffset:0;stroke-opacity:1;paint-order:markers stroke fill"
         inkscape:connector-curvature="0" />
      <path
         id="path1488"
         d="m 295.40258,143.61807 c -0.12068,0.0283 -0.24175,0.056 -0.36121,0.0873 0.11951,-0.0314 0.24051,-0.0589 0.36121,-0.0873 z"
         style="opacity:0.23999999;fill:#000000;fill-opacity:1;stroke:none;stroke-width:1.33634555;stroke-linecap:square;stroke-linejoin:miter;stroke-miterlimit:4;stroke-dasharray:none;stroke-dashoffset:0;stroke-opacity:1;paint-order:markers stroke fill"
         inkscape:connector-curvature="0" />
      <path
         id="path1484"
         d="m 285.03269,152.91466 c -0.064,0.1811 -0.12438,0.36393 -0.18137,0.54828 0.057,-0.18431 0.11739,-0.36719 0.18137,-0.54828 z"
         style="opacity:0.23999999;fill:#000000;fill-opacity:1;stroke:none;stroke-width:1.33634555;stroke-linecap:square;stroke-linejoin:miter;stroke-miterlimit:4;stroke-dasharray:none;stroke-dashoffset:0;stroke-opacity:1;paint-order:markers stroke fill"
         inkscape:connector-curvature="0" />
      <path
         id="path1482"
         d="m 284.84201,153.49395 c -0.0542,0.17688 -0.10531,0.35513 -0.15296,0.53485 0.0477,-0.17965 0.0987,-0.35802 0.15296,-0.53485 z"
         style="opacity:0.23999999;fill:#000000;fill-opacity:1;stroke:none;stroke-width:1.33634555;stroke-linecap:square;stroke-linejoin:miter;stroke-miterlimit:4;stroke-dasharray:none;stroke-dashoffset:0;stroke-opacity:1;paint-order:markers stroke fill"
         inkscape:connector-curvature="0" />
      <path
         id="path1480"
         d="m 284.66992,154.10218 c -0.0432,0.16646 -0.0835,0.33406 -0.12091,0.50281 0.0375,-0.16873 0.0776,-0.33636 0.12091,-0.50281 z"
         style="opacity:0.23999999;fill:#000000;fill-opacity:1;stroke:none;stroke-width:1.33634555;stroke-linecap:square;stroke-linejoin:miter;stroke-miterlimit:4;stroke-dasharray:none;stroke-dashoffset:0;stroke-opacity:1;paint-order:markers stroke fill"
         inkscape:connector-curvature="0" />
      <path
         id="path1478"
         d="m 284.52472,154.71455 c -0.0333,0.15597 -0.0637,0.31296 -0.092,0.47077 0.0284,-0.1577 0.0586,-0.31491 0.092,-0.47077 z"
         style="opacity:0.23999999;fill:#000000;fill-opacity:1;stroke:none;stroke-width:1.33634555;stroke-linecap:square;stroke-linejoin:miter;stroke-miterlimit:4;stroke-dasharray:none;stroke-dashoffset:0;stroke-opacity:1;paint-order:markers stroke fill"
         inkscape:connector-curvature="0" />
      <path
         id="path1476"
         d="m 284.40793,155.32175 c -0.0271,0.15961 -0.051,0.32024 -0.0729,0.48162 0.022,-0.16134 0.0457,-0.32205 0.0729,-0.48162 z"
         style="opacity:0.23999999;fill:#000000;fill-opacity:1;stroke:none;stroke-width:1.33634555;stroke-linecap:square;stroke-linejoin:miter;stroke-miterlimit:4;stroke-dasharray:none;stroke-dashoffset:0;stroke-opacity:1;paint-order:markers stroke fill"
         inkscape:connector-curvature="0" />
      <path
         id="path1474"
         d="m 284.31803,155.92636 c -0.0206,0.16187 -0.0375,0.32483 -0.0527,0.48834 0.0153,-0.16351 0.0321,-0.32648 0.0527,-0.48834 z"
         style="opacity:0.23999999;fill:#000000;fill-opacity:1;stroke:none;stroke-width:1.33634555;stroke-linecap:square;stroke-linejoin:miter;stroke-miterlimit:4;stroke-dasharray:none;stroke-dashoffset:0;stroke-opacity:1;paint-order:markers stroke fill"
         inkscape:connector-curvature="0" />
      <path
         id="path1472"
         d="m 284.25238,156.54596 c -0.013,0.15248 -0.0225,0.30611 -0.0305,0.45992 0.008,-0.15387 0.0175,-0.30739 0.0305,-0.45992 z"
         style="opacity:0.23999999;fill:#000000;fill-opacity:1;stroke:none;stroke-width:1.33634555;stroke-linecap:square;stroke-linejoin:miter;stroke-miterlimit:4;stroke-dasharray:none;stroke-dashoffset:0;stroke-opacity:1;paint-order:markers stroke fill"
         inkscape:connector-curvature="0" />
      <path
         id="path1470"
         d="m 284.21209,157.1759 c -0.008,0.20504 -0.0135,0.41084 -0.0135,0.61805 0,-0.2071 0.005,-0.41315 0.0135,-0.61805 z"
         style="opacity:0.23999999;fill:#000000;fill-opacity:1;stroke:none;stroke-width:1.33634555;stroke-linecap:square;stroke-linejoin:miter;stroke-miterlimit:4;stroke-dasharray:none;stroke-dashoffset:0;stroke-opacity:1;paint-order:markers stroke fill"
         inkscape:connector-curvature="0" />
      <path
         id="path1464"
         d="m 339.9501,208.76448 0.003,0.002 c 0.13912,-0.0413 0.27763,-0.0849 0.41495,-0.13022 -0.1378,0.0454 -0.27744,0.0872 -0.41704,0.12867 z"
         style="opacity:0.23999999;fill:#000000;fill-opacity:1;stroke:none;stroke-width:1.33634555;stroke-linecap:square;stroke-linejoin:miter;stroke-miterlimit:4;stroke-dasharray:none;stroke-dashoffset:0;stroke-opacity:1;paint-order:markers stroke fill"
         inkscape:connector-curvature="0" />
      <path
         id="path1462"
         d="m 344.8087,206.24577 c -0.2246,0.1773 -0.45423,0.3486 -0.68934,0.51263 0.23516,-0.16407 0.46469,-0.33529 0.68934,-0.51263 z"
         style="opacity:0.23999999;fill:#000000;fill-opacity:1;stroke:none;stroke-width:1.33634555;stroke-linecap:square;stroke-linejoin:miter;stroke-miterlimit:4;stroke-dasharray:none;stroke-dashoffset:0;stroke-opacity:1;paint-order:markers stroke fill"
         inkscape:connector-curvature="0" />
      <path
         id="path1460"
         d="m 344.09454,206.77597 c -0.11618,0.0807 -0.23381,0.15932 -0.35242,0.23668 0.11864,-0.0774 0.23622,-0.15598 0.35242,-0.23668 z"
         style="opacity:0.23999999;fill:#000000;fill-opacity:1;stroke:none;stroke-width:1.33634555;stroke-linecap:square;stroke-linejoin:miter;stroke-miterlimit:4;stroke-dasharray:none;stroke-dashoffset:0;stroke-opacity:1;paint-order:markers stroke fill"
         inkscape:connector-curvature="0" />
      <path
         id="path1458"
         d="m 343.66719,207.06071 c -0.2317,0.14907 -0.46794,0.29185 -0.7085,0.42788 0.24064,-0.13607 0.47672,-0.27877 0.7085,-0.42788 z"
         style="opacity:0.23999999;fill:#000000;fill-opacity:1;stroke:none;stroke-width:1.33634555;stroke-linecap:square;stroke-linejoin:miter;stroke-miterlimit:4;stroke-dasharray:none;stroke-dashoffset:0;stroke-opacity:1;paint-order:markers stroke fill"
         inkscape:connector-curvature="0" />
      <path
         id="path1456"
         d="m 342.92718,207.50667 c -0.12909,0.0726 -0.25916,0.14316 -0.39068,0.21188 0.13149,-0.0687 0.26159,-0.13931 0.39068,-0.21188 z"
         style="opacity:0.23999999;fill:#000000;fill-opacity:1;stroke:none;stroke-width:1.33634555;stroke-linecap:square;stroke-linejoin:miter;stroke-miterlimit:4;stroke-dasharray:none;stroke-dashoffset:0;stroke-opacity:1;paint-order:markers stroke fill"
         inkscape:connector-curvature="0" />
      <path
         id="path1454"
         d="m 342.50911,207.7325 c -0.24781,0.1288 -0.50003,0.25062 -0.75602,0.36535 0.25599,-0.11473 0.50821,-0.23655 0.75602,-0.36535 z"
         style="opacity:0.23999999;fill:#000000;fill-opacity:1;stroke:none;stroke-width:1.33634555;stroke-linecap:square;stroke-linejoin:miter;stroke-miterlimit:4;stroke-dasharray:none;stroke-dashoffset:0;stroke-opacity:1;paint-order:markers stroke fill"
         inkscape:connector-curvature="0" />
      <path
         id="path1452"
         d="m 295.04137,208.89315 c 0.11946,0.0313 0.24053,0.059 0.36121,0.0873 -0.1207,-0.0284 -0.2417,-0.056 -0.36121,-0.0873 z"
         style="opacity:0.23999999;fill:#000000;fill-opacity:1;stroke:none;stroke-width:1.33634555;stroke-linecap:square;stroke-linejoin:miter;stroke-miterlimit:4;stroke-dasharray:none;stroke-dashoffset:0;stroke-opacity:1;paint-order:markers stroke fill"
         inkscape:connector-curvature="0" />
      <path
         id="path1450"
         d="m 295.70283,209.04922 c 0.11207,0.0238 0.22489,0.0454 0.33795,0.0667 -0.11295,-0.0213 -0.22598,-0.0428 -0.33795,-0.0667 z"
         style="opacity:0.23999999;fill:#000000;fill-opacity:1;stroke:none;stroke-width:1.33634555;stroke-linecap:square;stroke-linejoin:miter;stroke-miterlimit:4;stroke-dasharray:none;stroke-dashoffset:0;stroke-opacity:1;paint-order:markers stroke fill"
         inkscape:connector-curvature="0" />
      <path
         id="path1448"
         d="m 296.38132,209.17634 c 0.10816,0.0177 0.21662,0.0338 0.32557,0.0491 -0.1089,-0.0153 -0.21746,-0.0313 -0.32557,-0.0491 z"
         style="opacity:0.23999999;fill:#000000;fill-opacity:1;stroke:none;stroke-width:1.33634555;stroke-linecap:square;stroke-linejoin:miter;stroke-miterlimit:4;stroke-dasharray:none;stroke-dashoffset:0;stroke-opacity:1;paint-order:markers stroke fill"
         inkscape:connector-curvature="0" />
      <path
         id="path1446"
         d="m 297.07069,209.27194 c 0.10351,0.0119 0.20693,0.0238 0.3111,0.0336 -0.10409,-0.01 -0.20767,-0.0216 -0.3111,-0.0336 z"
         style="opacity:0.23999999;fill:#000000;fill-opacity:1;stroke:none;stroke-width:1.33634555;stroke-linecap:square;stroke-linejoin:miter;stroke-miterlimit:4;stroke-dasharray:none;stroke-dashoffset:0;stroke-opacity:1;paint-order:markers stroke fill"
         inkscape:connector-curvature="0" />
      <path
         id="rect1328"
         d="m 297.8324,209.33912 c 0.0765,0.005 0.15258,0.0113 0.22944,0.015 -0.0769,-0.004 -0.15287,-0.0102 -0.22944,-0.015 z"
         style="opacity:0.23999999;fill:#000000;fill-opacity:1;stroke:none;stroke-width:1.33634555;stroke-linecap:square;stroke-linejoin:miter;stroke-miterlimit:4;stroke-dasharray:none;stroke-dashoffset:0;stroke-opacity:1;paint-order:markers stroke fill"
         inkscape:connector-curvature="0" />
    </g>
  </g>
</svg>
